<svg
    xmlns="http://www.w3.org/2000/svg"
    viewBox="0 0 811 768"
    id="vector">
    <path
        id="path"
        d="M 55.4 344.1 C 130.8 355.4 206.6 334.2 258.1 287.6 C 191.1 274 115.3 295.1 55.4 344.1 M 324 269 C 339 276.4 363.6 293.6 379.8 310.7 C 397.2 329 411.4 350.1 421.9 373.9 L 392.4 399 C 383.3 375.6 370.4 355 353.8 337.6 C 338.5 321.5 320.5 308.8 300.3 299.6 C 177.8 427.4 13.6 372.9 13.6 372.9 C 7 371.3 1.9 366.1 0.2 359.3 C -1.5 352.5 0.3 345.3 5.3 340.5 C 5.3 340.5 123.1 208.1 288.7 254.8 C 288.6 254.8 300.6 257.5 324 269"
        fill="#ffc90d"/>
    <path
        id="path_1"
        d="M 754.1 423.4 C 678.7 412.1 602.9 433.3 551.3 479.9 C 618.4 493.4 694.2 472.3 754.1 423.4 M 487.5 497.7 C 472.5 490.3 447.9 473.1 431.7 456 C 414.3 437.7 400.1 416.5 389.6 392.8 L 419.1 367.7 C 428.2 391.1 441.1 411.7 457.7 429.1 C 473.1 445.2 491 457.9 511.2 467.1 C 633.6 339.3 797.9 393.9 797.9 393.9 C 804.5 395.5 809.6 400.8 811.3 407.5 C 813 414.3 811.2 421.5 806.2 426.3 C 806.2 426.3 688.3 558.7 522.8 512 C 522.8 511.9 510.8 509.2 487.5 497.7"
        fill="#5d538b"/>
    <path
        id="path_2"
        d="M 197.1 678.6 C 244.1 616.3 264.5 537.4 251.4 467.7 C 206.6 521.3 186.3 600.2 197.1 678.6 M 268.5 401.2 C 282.1 391.4 308.8 377.9 331.1 371.7 C 355 365.1 379.7 363 404.8 365.4 L 410.9 404.6 C 386.9 401.1 363.2 402.4 340.5 408.7 C 319.5 414.5 299.9 424.3 282.1 438 C 327.2 612.2 199.7 732.9 199.7 732.9 C 195.1 738 188.2 740 181.6 738.2 C 175.1 736.4 170.1 731.1 168.5 724.2 C 168.5 724.2 117.2 551.8 238.9 426 C 239.1 425.9 247.3 416.5 268.5 401.2"
        fill="#f65058"/>
    <path
        id="path_3"
        d="M 612.4 88.8 C 565.3 151.1 545 230 558.1 299.7 C 602.9 246.1 623.2 167.2 612.4 88.8 M 541 368.1 C 527.4 377.9 500.7 391.4 478.4 397.6 C 454.5 404.2 429.8 406.3 404.7 403.9 L 398.6 364.7 C 422.6 368.2 446.3 366.9 469 360.6 C 490 354.8 509.6 345 527.4 331.3 C 482.2 157.1 609.8 36.4 609.8 36.4 C 614.4 31.3 621.3 29.3 627.8 31.1 C 634.3 32.9 639.3 38.2 640.9 45.1 C 640.9 45.1 692.2 217.5 570.6 343.3 C 570.5 343.4 562.2 352.8 541 368.1"
        fill="#6cd1ef"/>
    <path
        id="path_4"
        d="M 544 718.3 C 515.7 644.8 460.2 587 395.6 563.9 C 417.9 631.1 473.4 688.8 544 718.3 M 348.9 515.2 C 347.6 498 349.6 467.3 355.7 444.1 C 362.2 419.3 372.7 395.9 388 373.8 L 423.7 387.9 C 408 408.5 397.4 430.5 391.2 454.1 C 385.5 476 383.9 498.5 386.4 521.3 C 553.9 567.7 590.7 742.9 590.7 742.9 C 592.7 749.6 590.8 756.9 586.1 761.8 C 581.3 766.8 574.4 768.7 567.9 766.6 C 567.9 766.6 398.7 726.6 354.8 554.1 C 354.7 554.1 351 542 348.9 515.2"
        fill="#3bd23d"/>
    <path
        id="path_5"
        d="M 263.1 49.2 C 289.6 117.8 339.6 172.7 398.7 198.5 C 403.7 200.7 408.8 195.7 406.8 190.6 C 382 129 329.2 76.7 263.1 49.2 M 458.3 252.2 C 459.6 269.4 457.6 300.2 451.5 323.3 C 445.4 346.5 435.8 368.5 422.7 388.7 C 421.1 391.1 418 392.1 415.4 391 L 391.5 381.6 C 387.9 380.2 386.6 375.7 388.8 372.5 C 401.4 354.3 410.6 334.4 416.1 313.3 C 421.5 292.7 423.2 271.6 421.3 250.2 C 421.1 247.7 419.3 245.7 416.9 245 C 252.8 197 216.6 24.5 216.6 24.5 C 214.6 17.8 216.5 10.5 221.2 5.6 C 226 0.7 232.9 -1.2 239.4 0.8 C 239.4 0.8 408.6 40.7 452.5 213.3 C 452.5 213.3 456.2 225.5 458.3 252.2"
        fill="#f984ca"/>
</svg>
