<svg xmlns="http://www.w3.org/2000/svg" viewBox="0 0 161.54 60.05"><defs><style>.cls-1{fill:#fff;}</style></defs><g id="Layer_2" data-name="Layer 2"><g id="Layer_1-2" data-name="Layer 1"><g id="Layer_2-2" data-name="Layer 2"><g id="Layer_1-2-2" data-name="Layer 1-2"><path class="cls-1" d="M66.79,12.2h4.95v5.9H66.79V28.39c0,2.15,1,2.85,2.9,2.85a9.65,9.65,0,0,0,2-.2v5.5a9.86,9.86,0,0,1-3.75.6c-4.8,0-7.8-2.85-7.8-7.6V18.1H55.74V12.2H57c2.6,0,3.8-1.7,3.8-3.9V4.85h6Z"/><path class="cls-1" d="M77.56,0a4.1,4.1,0,1,1-4.1,4.15A4.1,4.1,0,0,1,77.56,0Zm-3.3,36.79V12.2H80.9V36.79Z"/><path class="cls-1" d="M91.56,36.79H84.91V12.2h6.45v3.05a8.16,8.16,0,0,1,7.09-3.7c6.1,0,8.9,4.35,8.9,9.74v15.5H100.7V22.45c0-2.75-1.35-4.9-4.55-4.9-2.89,0-4.59,2.25-4.59,5.1Z"/><path class="cls-1" d="M115.55,36.54a5.51,5.51,0,0,0,5.75,4.65c4.2,0,6.55-2.1,6.55-6.85v-1.8c-1,1.6-3.3,3.15-6.85,3.15-6.55,0-11.44-5-11.44-11.94,0-6.5,4.69-12,11.44-12,3.9,0,6.15,1.7,7,3.35V12.2h6.4V34.14c0,6.75-3.65,12.9-12.9,12.9-6.75,0-11.24-4.2-11.94-8.9ZM128,23.74c0-3.79-2.6-6.19-5.8-6.19a5.8,5.8,0,0,0-5.9,6.19c0,3.85,2.45,6.25,5.9,6.25S128,27.54,128,23.74Z"/><path class="cls-1" d="M142.7,36.54a5.5,5.5,0,0,0,5.74,4.65c4.2,0,6.55-2.1,6.55-6.85v-1.8c-1,1.6-3.3,3.15-6.85,3.15-6.54,0-11.44-5-11.44-11.94,0-6.5,4.7-12,11.44-12,3.9,0,6.15,1.7,7,3.35V12.2h6.4V34.14c0,6.75-3.65,12.9-12.9,12.9-6.74,0-11.24-4.2-11.94-8.9Zm12.39-12.8c0-3.79-2.6-6.19-5.8-6.19s-5.89,2.4-5.89,6.19S145.84,30,149.29,30s5.8-2.45,5.8-6.25Z"/><path class="cls-1" d="M53.15,22.51,47,17.6a23.19,23.19,0,0,1-6.06,4.78l-3.46,1.89h0l1.35-3.7A31,31,0,0,0,39,0L31.65,2.89a23,23,0,0,1,1.11,7.64l-.09,3.94v0l-2.53-3A31,31,0,0,0,12.41,1l-1.16,7.8a23.07,23.07,0,0,1,7.17,2.86l3.36,2.05,0,0-3.88.68A31,31,0,0,0,0,24.53l6.17,4.91a23,23,0,0,1,6.06-4.78l3.46-1.89h0l-1.34,3.7A31,31,0,0,0,14.16,47l7.34-2.89a23.05,23.05,0,0,1-1.12-7.64l.09-3.94s0,0,0,0l2.54,3A31,31,0,0,0,40.73,46l1.17-7.8a23.09,23.09,0,0,1-7.17-2.85l-3.37-2.06h0l3.88-.69A31,31,0,0,0,53.15,22.51ZM29.56,25.24l-3,1.73-3-1.73V21.8l3-1.73,3,1.73Z"/><path class="cls-1" d="M107.65,55a2.57,2.57,0,0,1-2.53,2.71,2.07,2.07,0,0,1-1.7-.82v.69h-1.28V49.61h1.27v3.47a2,2,0,0,1,1.72-.81A2.53,2.53,0,0,1,107.65,55Zm-1.28,0a1.46,1.46,0,0,0-1.45-1.49,1.51,1.51,0,0,0,0,3A1.49,1.49,0,0,0,106.37,55Z"/><path class="cls-1" d="M112.12,52.4h1.37l-3.19,7.65H109l1.15-2.87-2-4.78h1.39l1.34,3.26Z"/><path class="cls-1" d="M116.65,53.75a3.89,3.89,0,0,1,3.85-3.92,3.77,3.77,0,0,1,3,1.47l-1,.77a2.45,2.45,0,0,0-2-1,2.67,2.67,0,0,0,0,5.34,2.45,2.45,0,0,0,2-1l1,.77a3.77,3.77,0,0,1-3,1.47A3.89,3.89,0,0,1,116.65,53.75Z"/><path class="cls-1" d="M129.5,55.42h-4a1.35,1.35,0,0,0,1.46,1.1,1.74,1.74,0,0,0,1.39-.66l.86.64a2.75,2.75,0,0,1-2.33,1.17,2.7,2.7,0,0,1,0-5.4,2.53,2.53,0,0,1,2.62,2.65C129.52,55.06,129.51,55.23,129.5,55.42Zm-1.25-.9a1.25,1.25,0,0,0-1.34-1.12,1.32,1.32,0,0,0-1.4,1.12Z"/><path class="cls-1" d="M130.7,57.54V49.61H132v7.93Z"/><path class="cls-1" d="M133.49,57.54V49.61h1.28v7.93Z"/><path class="cls-1" d="M139.87,52.4h1.28v5.14h-1.28v-.8a1.77,1.77,0,0,1-1.59.93c-1.33,0-2.06-.89-2.06-2.39V52.4h1.28v2.83a1.1,1.1,0,0,0,1.07,1.25,1.25,1.25,0,0,0,1.31-1.33Z"/><path class="cls-1" d="M142.66,57.54V49.61h1.28v7.93Z"/><path class="cls-1" d="M149.39,52.4h1.27v5.14h-1.27v-.8a2.08,2.08,0,0,1-1.76.93,2.71,2.71,0,0,1,0-5.4,2,2,0,0,1,1.73.85Zm0,2.56a1.49,1.49,0,0,0-1.48-1.5,1.46,1.46,0,0,0-1.45,1.5,1.47,1.47,0,1,0,2.93,0Z"/><path class="cls-1" d="M157.11,54.66v2.88h-1.28V54.75c0-.83-.49-1.27-1.07-1.27a1.24,1.24,0,0,0-1.3,1.33v2.73h-1.28V52.41h1.28v.81a1.77,1.77,0,0,1,1.59-.95C156.37,52.27,157.11,53.16,157.11,54.66Z"/><path class="cls-1" d="M161.32,52.4v1h-1.09v4.13H159V53.41H158v-1H159V50.51h1.27V52.4Z"/></g></g></g></g></svg>